HIERARCHY
ROOT pelvis
{
	OFFSET 0.000000 0.000000 0.683398
	CHANNELS 6 Xposition Yposition Zposition Xrotation Yrotation Zrotation
	JOINT spine
	{
		OFFSET 0.000000 0.000000 0.000000
		CHANNELS 6 Xposition Yposition Zposition Xrotation Yrotation Zrotation
		JOINT spine.001
		{
			OFFSET 0.000000 -0.010624 0.202717
			CHANNELS 3 Xrotation Yrotation Zrotation
			JOINT neck
			{
				OFFSET 0.000000 0.024739 0.201482
				CHANNELS 6 Xposition Yposition Zposition Xrotation Yrotation Zrotation
				JOINT face
				{
					OFFSET 0.000000 0.002737 0.156783
					CHANNELS 6 Xposition Yposition Zposition Xrotation Yrotation Zrotation
					End Site
					{
						OFFSET 0.000000 -0.018659 -0.006625
					}
				}
			}
			JOINT shoulder.L
			{
				OFFSET 0.000000 0.024739 0.201482
				CHANNELS 6 Xposition Yposition Zposition Yrotation Xrotation Zrotation
				JOINT upper_arm.L
				{
					OFFSET 0.127209 0.000000 0.000000
					CHANNELS 6 Xposition Yposition Zposition Xrotation Yrotation Zrotation
					JOINT forearm.L
					{
						OFFSET 0.218660 0.000097 0.000806
						CHANNELS 6 Xposition Yposition Zposition Xrotation Yrotation Zrotation
						End Site
						{
							OFFSET 0.187538 -0.003184 -0.001108
						}
					}
				}
			}
			JOINT shoulder.R
			{
				OFFSET 0.000000 0.024739 0.201482
				CHANNELS 6 Xposition Yposition Zposition Yrotation Xrotation Zrotation
				JOINT upper_arm.R
				{
					OFFSET -0.127209 0.000000 0.000000
					CHANNELS 6 Xposition Yposition Zposition Xrotation Yrotation Zrotation
					JOINT forearm.R
					{
						OFFSET -0.220380 0.000097 0.000806
						CHANNELS 6 Xposition Yposition Zposition Xrotation Yrotation Zrotation
						End Site
						{
							OFFSET -0.189239 -0.003214 -0.001109
						}
					}
				}
			}
		}
	}
	JOINT pelvis.L
	{
		OFFSET 0.000000 0.000000 0.000000
		CHANNELS 6 Xposition Yposition Zposition Yrotation Xrotation Zrotation
		End Site
		{
			OFFSET 0.076649 0.000000 0.000000
		}
	}
	JOINT pelvis.R
	{
		OFFSET 0.000000 0.000000 0.000000
		CHANNELS 6 Xposition Yposition Zposition Yrotation Xrotation Zrotation
		End Site
		{
			OFFSET -0.076649 0.000000 0.000000
		}
	}
	JOINT thigh.L
	{
		OFFSET 0.076649 0.000000 0.000000
		CHANNELS 6 Xposition Yposition Zposition Xrotation Yrotation Zrotation
		JOINT shin.L
		{
			OFFSET 0.016524 0.000000 -0.315292
			CHANNELS 6 Xposition Yposition Zposition Xrotation Yrotation Zrotation
			JOINT foot.L
			{
				OFFSET 0.016092 0.000000 -0.307046
				CHANNELS 3 Xrotation Yrotation Zrotation
				End Site
				{
					OFFSET 0.014419 -0.147015 -0.061734
				}
			}
			JOINT heel.02.L
			{
				OFFSET 0.016092 0.000000 -0.307046
				CHANNELS 3 Xrotation Yrotation Zrotation
				End Site
				{
					OFFSET 0.066282 0.028975 -0.056814
				}
			}
		}
	}
	JOINT thigh.R
	{
		OFFSET -0.076649 0.000000 0.000000
		CHANNELS 6 Xposition Yposition Zposition Xrotation Yrotation Zrotation
		JOINT shin.R
		{
			OFFSET -0.016635 0.000000 -0.317420
			CHANNELS 6 Xposition Yposition Zposition Xrotation Yrotation Zrotation
			JOINT foot.R
			{
				OFFSET -0.015733 0.000000 -0.300209
				CHANNELS 3 Xrotation Yrotation Zrotation
				End Site
				{
					OFFSET -0.014422 -0.147047 -0.061748
				}
			}
			JOINT heel.02.R
			{
				OFFSET -0.015733 0.000000 -0.300209
				CHANNELS 3 Xrotation Yrotation Zrotation
				End Site
				{
					OFFSET -0.068873 0.028975 -0.061401
				}
			}
		}
	}
}
MOTION
Frames: 5
Frame Time: 0.041667
-0.023883 0.142358 0.663675 -0.000000 0.000000 3.344240 0.000000 0.000000 0.000000 -20.006053 1.315164 0.303715 9.996237 0.230199 1.875082 0.000000 0.024739 0.201482 12.170025 -1.093835 1.913535 0.000000 0.002737 0.156783 6.527269 -0.000000 0.000003 0.000000 0.024739 0.201482 -2.727505 0.007967 0.334724 0.127209 -0.000000 0.000000 44.255500 78.885256 -52.589492 0.218660 0.000097 0.000806 1.155738 10.084000 -11.880189 0.000000 0.024739 0.201482 -2.671030 0.007645 0.327847 -0.127209 0.000000 -0.000000 27.899021 -73.776596 36.603779 -0.220380 0.000097 0.000806 0.886390 -10.046539 8.683304 0.000000 0.000000 0.000000 -2.037005 -0.000001 -0.000067 0.000000 0.000000 0.000000 -2.037005 -0.000000 0.000000 0.076600 0.000000 0.002724 -5.932738 2.902061 -0.160999 0.016524 -0.000000 -0.315292 -4.290153 -5.867226 -0.443704 9.693777 2.360036 -4.475073 -8.570768 42.788249 31.372585 -0.076600 -0.000000 -0.002724 -6.449486 -4.032349 0.111282 -0.016635 0.000000 -0.317420 -1.465498 1.902168 0.101049 5.904058 0.133939 -1.944107 -10.988432 -48.035563 -35.423789 
-0.024025 0.141982 0.664249 -0.000000 0.000000 3.383209 0.000000 0.000000 -0.000000 -19.772499 1.291247 0.295421 9.995982 0.237400 1.933876 0.000000 0.024739 0.201482 11.113248 -0.888788 1.965719 -0.000000 0.002737 0.156783 7.034193 -0.000000 0.000003 -0.000000 0.024739 0.201482 -2.778264 0.008266 0.340903 0.127209 0.000000 -0.000000 43.590168 78.573793 -52.080240 0.218660 0.000097 0.000806 1.201416 10.560644 -11.736342 -0.000000 0.024739 0.201482 -2.721739 0.007936 0.334047 -0.127209 -0.000000 0.000000 27.167607 -73.791602 35.662754 -0.220380 0.000097 0.000806 0.972547 -10.429671 9.265411 0.000000 0.000000 0.000000 -1.752542 -0.000000 0.000023 0.000000 0.000000 0.000000 -1.752542 -0.000000 0.000000 0.076613 0.000000 0.002344 -5.851670 2.754811 -0.166324 0.016524 -0.000000 -0.315292 -4.380263 -5.567008 -0.441615 9.550042 2.387272 -4.581379 -8.555819 42.721676 31.261533 -0.076613 0.000000 -0.002344 -6.504229 -4.200294 0.102663 -0.016635 0.000000 -0.317420 -1.146654 2.113330 0.081169 5.327054 0.404381 -2.501650 -12.066924 -48.695338 -35.771169 
-0.024089 0.141618 0.664719 -0.000000 0.000000 3.443166 -0.000000 0.000000 0.000000 -19.628818 1.281957 0.291604 9.995745 0.244881 1.994785 -0.000000 0.024739 0.201482 10.422075 -0.753944 2.000960 0.000000 0.002737 0.156783 7.327642 -0.000000 -0.000000 -0.000000 0.024739 0.201482 -2.870525 0.008823 0.352259 0.127209 -0.000000 -0.000000 43.387131 78.363655 -52.015425 0.218660 0.000097 0.000806 1.236828 10.903401 -11.669067 -0.000000 0.024739 0.201482 -2.813995 0.008482 0.345384 -0.127209 -0.000000 0.000000 26.489832 -73.750935 34.821455 -0.220380 0.000097 0.000806 1.037481 -10.724095 9.667521 0.000000 0.000000 0.000000 -1.537296 -0.000000 -0.000022 0.000000 0.000000 0.000000 -1.537296 -0.000000 0.000000 0.076621 0.000000 0.002056 -5.801705 2.645041 -0.170466 0.016524 -0.000000 -0.315292 -4.424306 -5.327416 -0.436855 9.461687 2.412121 -4.671371 -8.541426 42.674783 31.188058 -0.076621 0.000000 -0.002056 -6.571871 -4.309851 0.097428 -0.016635 0.000000 -0.317420 -0.817494 2.248000 0.058823 4.884775 0.629630 -2.964610 -12.961317 -49.213248 -36.031604 
-0.024066 0.141244 0.665039 -0.000000 0.000000 3.543858 -0.000000 0.000000 0.000000 -19.582467 1.296352 0.294327 9.995502 0.251725 2.050592 -0.000000 0.024739 0.201482 10.100129 -0.711228 1.968520 0.000000 0.002737 0.156783 7.419530 0.000000 0.000001 -0.000000 0.024739 0.201482 -2.996584 0.009616 0.367752 0.127209 -0.000000 0.000000 43.636320 78.255615 -52.387684 0.218660 0.000097 0.000806 1.259079 11.103973 -11.648133 -0.000000 0.024739 0.201482 -2.940106 0.009261 0.360849 -0.127209 -0.000000 -0.000000 25.854315 -73.682291 34.047817 -0.220380 0.000097 0.000806 1.076667 -10.893155 9.908709 -0.000000 0.000000 0.000000 -1.394093 0.000001 0.000045 -0.000000 0.000000 0.000000 -1.394093 0.000000 0.000000 0.076626 0.000000 0.001865 -5.797652 2.587982 -0.173236 0.016524 -0.000000 -0.315292 -4.394052 -5.171789 -0.427927 9.409019 2.438611 -4.760904 -8.526940 42.642671 31.143269 -0.076626 0.000000 -0.001865 -6.645962 -4.348445 0.096282 -0.016635 0.000000 -0.317420 -0.490252 2.289128 0.035452 4.567896 0.802832 -3.320502 -13.588048 -49.543979 -36.156388 
-0.024005 0.140837 0.665233 -0.000000 0.000000 3.664173 0.000000 0.000000 -0.000000 -19.571996 1.327220 0.301208 9.995347 0.257172 2.095158 0.000000 0.024739 0.201482 9.897920 -0.732554 1.818818 -0.000000 0.002737 0.156783 7.472467 -0.000000 0.000001 0.000000 0.024739 0.201482 -3.103959 0.010319 0.380884 0.127209 0.000000 -0.000000 43.925865 78.172881 -52.786499 0.218660 0.000097 0.000806 1.271266 11.252355 -11.587669 -0.000000 0.024739 0.201482 -3.047485 0.009947 0.374014 -0.127209 0.000000 -0.000000 25.298753 -73.662928 33.345858 -0.220380 0.000097 0.000806 1.100511 -10.944258 10.111913 0.000000 0.000000 -0.000000 -1.282407 -0.000001 -0.000089 0.000000 0.000000 -0.000000 -1.282407 0.000000 0.000000 0.076629 0.000000 0.001715 -5.840207 2.572461 -0.175302 0.016524 -0.000000 -0.315292 -4.270212 -5.089705 -0.412812 9.322570 2.465972 -4.857570 -8.527424 42.618618 31.096550 -0.076629 0.000000 -0.001716 -6.712541 -4.338582 0.097829 -0.016635 0.000000 -0.317420 -0.193099 2.258156 0.013911 4.279078 0.944540 -3.596562 -13.999670 -49.733773 -36.177709 
